<?xml version="1.0" encoding="UTF-8" standalone="no"?>
<!-- Created with Inkscape (http://www.inkscape.org/) -->

<svg
   xmlns:dc="http://purl.org/dc/elements/1.1/"
   xmlns:cc="http://creativecommons.org/ns#"
   xmlns:rdf="http://www.w3.org/1999/02/22-rdf-syntax-ns#"
   xmlns:svg="http://www.w3.org/2000/svg"
   xmlns="http://www.w3.org/2000/svg"
   xmlns:sodipodi="http://sodipodi.sourceforge.net/DTD/sodipodi-0.dtd"
   xmlns:inkscape="http://www.inkscape.org/namespaces/inkscape"
   id="svg3006"
   version="1.1"
   inkscape:version="0.48.4 r9939"
   width="64"
   height="64"
   sodipodi:docname="nonames.svg"
   inkscape:export-filename="/home/ei-grad/rnnf-logo/nonames32.png"
   inkscape:export-xdpi="45"
   inkscape:export-ydpi="45">
  <metadata
     id="metadata3012">
    <rdf:RDF>
      <cc:Work
         rdf:about="">
        <dc:format>image/svg+xml</dc:format>
        <dc:type
           rdf:resource="http://purl.org/dc/dcmitype/StillImage" />
        <dc:title></dc:title>
      </cc:Work>
    </rdf:RDF>
  </metadata>
  <defs
     id="defs3010" />
  <sodipodi:namedview
     pagecolor="#ffffff"
     bordercolor="#666666"
     borderopacity="1"
     objecttolerance="10"
     gridtolerance="10"
     guidetolerance="10"
     inkscape:pageopacity="0"
     inkscape:pageshadow="2"
     inkscape:window-width="1598"
     inkscape:window-height="884"
     id="namedview3008"
     showgrid="true"
     showguides="true"
     inkscape:snap-global="true"
     inkscape:snap-bbox="false"
     inkscape:snap-object-midpoints="false"
     inkscape:snap-grids="true"
     inkscape:snap-to-guides="false"
     inkscape:snap-nodes="true"
     inkscape:snap-center="false"
     inkscape:zoom="8"
     inkscape:cx="24.108595"
     inkscape:cy="15.946172"
     inkscape:window-x="0"
     inkscape:window-y="14"
     inkscape:window-maximized="0"
     inkscape:current-layer="svg3006"
     inkscape:guide-bbox="true">
    <inkscape:grid
       type="xygrid"
       id="grid3134"
       empspacing="5"
       visible="true"
       enabled="true"
       snapvisiblegridlinesonly="true" />
    <sodipodi:guide
       position="0,0"
       orientation="0,64"
       id="guide3961" />
    <sodipodi:guide
       position="64,0"
       orientation="-64,0"
       id="guide3963" />
    <sodipodi:guide
       position="64,64"
       orientation="0,-64"
       id="guide3965" />
    <sodipodi:guide
       position="0,64"
       orientation="64,0"
       id="guide3967" />
  </sodipodi:namedview>
  <rect
     style="fill:#ffffff;fill-opacity:1;stroke-width:2;stroke-linecap:square;stroke-linejoin:bevel;stroke-miterlimit:4;stroke-dasharray:none"
     id="rect3884"
     width="64"
     height="64"
     x="0"
     y="0"
     inkscape:export-xdpi="90"
     inkscape:export-ydpi="90" />
  <g
     id="g3108"
     transform="matrix(1.9969096,0,0,2.212444,-0.04146297,-1250.0167)">
    <path
       style="fill:none;stroke:#000000;stroke-width:1.00003994;stroke-linecap:butt;stroke-linejoin:bevel;stroke-miterlimit:4;stroke-opacity:1;stroke-dasharray:none"
       d="m 1.523085,584.42912 0,-10.84773 3.0046427,0 0,-2.71194 3.0046428,0 0,-1.80795 6.0092855,0 0,1.80795 3.004643,0 0,2.71194 3.004643,0 0,10.84773 -3.004643,0 0,-6.32784 -2.003095,0 0,6.32784 -3.004643,0 0,-6.32784 -2.0030955,0 2e-7,6.32784 -3.0046428,0 -2e-7,-6.32784 -2.0030952,0 2e-7,6.32784 z"
       id="path3136"
       inkscape:connector-curvature="0"
       sodipodi:nodetypes="ccccccccccccccccccccccccc" />
    <path
       style="fill:none;stroke:#000000;stroke-width:1px;stroke-linecap:butt;stroke-linejoin:miter;stroke-opacity:1"
       d="m 6.5308229,572.67741 3.0046425,0 0,2.71193 -3.0046425,0 z"
       id="path3906"
       inkscape:connector-curvature="0"
       sodipodi:nodetypes="ccccc" />
    <path
       style="fill:none;stroke:#000000;stroke-width:1px;stroke-linecap:butt;stroke-linejoin:miter;stroke-opacity:1"
       d="m 11.538562,572.67741 3.004642,0 0,2.71193 -3.004642,0 z"
       id="path3906-3"
       inkscape:connector-curvature="0"
       sodipodi:nodetypes="ccccc" />
  </g>
  <rect
     style="fill:#ff0000"
     id="rect3039"
     width="4"
     height="13"
     x="4"
     y="29" />
  <rect
     style="fill:#00ff00;fill-opacity:1"
     id="rect3041"
     width="4"
     height="13"
     x="14"
     y="29" />
  <rect
     style="fill:#00ffff;fill-opacity:1"
     id="rect3043"
     width="4"
     height="13"
     x="24"
     y="29" />
  <rect
     style="fill:#ffff00;fill-opacity:1"
     id="rect3045"
     width="4"
     height="13"
     x="34"
     y="29" />
  <rect
     style="fill:#ff00ff;fill-opacity:1"
     id="rect3815"
     width="4"
     height="2"
     x="14"
     y="20" />
  <rect
     style="fill:#ff00ff;fill-opacity:1"
     id="rect3817"
     width="4"
     height="2"
     x="24"
     y="20" />
  <path
     style="fill:none;stroke:#000000;stroke-width:2;stroke-linecap:square;stroke-linejoin:bevel;stroke-miterlimit:4;stroke-opacity:1;stroke-dasharray:none"
     d="m 3,61 0,-12 8,0 0,6 -8,0 8,6"
     id="path3827"
     inkscape:connector-curvature="0"
     sodipodi:nodetypes="cccccc" />
  <path
     style="fill:none;stroke:#000000;stroke-width:2;stroke-linecap:square;stroke-linejoin:bevel;stroke-miterlimit:4;stroke-opacity:1;stroke-dasharray:none"
     d="m 21,61 -6,0 0,-8 6,0 0,4 -6,0"
     id="path3829"
     inkscape:connector-curvature="0"
     sodipodi:nodetypes="cccccc" />
  <path
     style="fill:none;stroke:#000000;stroke-width:2;stroke-linecap:butt;stroke-linejoin:bevel;stroke-miterlimit:4;stroke-opacity:1;stroke-dasharray:none"
     d="m 25,62 0,-9 6,0 0,9 0,-5 -6,0 z"
     id="path3833"
     inkscape:connector-curvature="0"
     sodipodi:nodetypes="ccccccc" />
  <path
     style="fill:none;stroke:#000000;stroke-width:2;stroke-linecap:square;stroke-linejoin:miter;stroke-miterlimit:4;stroke-opacity:1;stroke-dasharray:none"
     d="M 35,61 35,49"
     id="path3835"
     inkscape:connector-curvature="0"
     sodipodi:nodetypes="cc" />
  <path
     style="fill:none;stroke:#000000;stroke-width:2;stroke-linecap:square;stroke-linejoin:miter;stroke-miterlimit:4;stroke-opacity:1;stroke-dasharray:none"
     d="M 39,61 39,49"
     id="path3835-7"
     inkscape:connector-curvature="0"
     sodipodi:nodetypes="cc" />
  <path
     style="fill:none;stroke:#000000;stroke-width:2;stroke-linecap:square;stroke-linejoin:bevel;stroke-miterlimit:4;stroke-opacity:1;stroke-dasharray:none"
     d="m 43,53 0,4 6,0 0,-5 0,9 -6,0"
     id="path3868"
     inkscape:connector-curvature="0"
     sodipodi:nodetypes="cccccc" />
  <rect
     style="fill:#000000;fill-opacity:1;stroke-width:2;stroke-linecap:round;stroke-linejoin:round;stroke-miterlimit:4;stroke-dasharray:none"
     id="rect3876"
     width="2"
     height="2"
     x="52"
     y="60" />
  <path
     style="fill:none;stroke:#000000;stroke-width:2;stroke-linecap:square;stroke-linejoin:bevel;stroke-miterlimit:4;stroke-opacity:1;stroke-dasharray:none"
     d="m 53,57 0,-2 4,0 0,-6 -6,0"
     id="path3878"
     inkscape:connector-curvature="0"
     sodipodi:nodetypes="ccccc" />
  <rect
     style="fill:#000000;fill-opacity:1;stroke-width:2;stroke-linecap:square;stroke-linejoin:bevel;stroke-miterlimit:4;stroke-dasharray:none"
     id="rect3880"
     width="2"
     height="2"
     x="56"
     y="60" />
  <rect
     style="fill:#000000;fill-opacity:1;stroke-width:2;stroke-linecap:square;stroke-linejoin:bevel;stroke-miterlimit:4;stroke-dasharray:none"
     id="rect3882"
     width="2"
     height="2"
     x="60"
     y="60" />
  <path
     style="fill:#ff0000;fill-opacity:1;stroke:none"
     d="m 43,16 c 5.333333,0 11.666667,0 17,0 0,2 0,4 0,6 -5.333333,0 -11.666667,0 -17,0 0,-2 0,-4 0,-6 z"
     id="path3853-0"
     inkscape:connector-curvature="0"
     sodipodi:nodetypes="ccccc" />
  <path
     style="fill:#0000ff;fill-opacity:1;stroke:none"
     d="m 38,10 22,0 0,6 -22,0 z"
     id="path3853"
     inkscape:connector-curvature="0"
     sodipodi:nodetypes="ccccc" />
  <path
     style="fill:none;stroke:#000000;stroke-width:2;stroke-linecap:square;stroke-linejoin:miter;stroke-miterlimit:4;stroke-opacity:1;stroke-dasharray:none"
     d="m 61,44 0,-41 -30,0 0,6 6,0 0,6 6,0 0,6 6,0 0,2 12,0 z"
     id="path3083"
     inkscape:connector-curvature="0"
     sodipodi:nodetypes="cccccccccccc" />
  <rect
     style="fill:#ff00ff;fill-opacity:1;stroke:none"
     id="rect3875"
     width="2"
     height="2"
     x="46"
     y="30" />
  <path
     style="fill:none;stroke:#000000;stroke-width:2;stroke-linecap:square;stroke-linejoin:bevel;stroke-miterlimit:4;stroke-opacity:1;stroke-dasharray:none"
     d="m 43,44 0,-11 2,0 0,-4 5.29297,0 2.70703,0 -2,0 0,3 -2,0 0,-3 -2,0 0,-2 6,0 0,2 2,0 0,4 2,0 0,11 0,-11 -4,0 0,11 0,-11 -6,0 0,11 0,-11 -4,0 0,11"
     id="path3879"
     inkscape:connector-curvature="0"
     sodipodi:nodetypes="ccccccccccccccccccccccccccc" />
  <rect
     style="fill:#ff00ff;fill-opacity:1;stroke:none"
     id="rect3877"
     width="2"
     height="2"
     x="52"
     y="30" />
  <rect
     style="fill:#ff0000"
     id="rect3039-5"
     width="2"
     height="10"
     x="44"
     y="34" />
  <rect
     style="fill:#00ff00;fill-opacity:1"
     id="rect3041-5"
     width="2"
     height="10"
     x="48"
     y="34" />
  <rect
     style="fill:#00ffff;fill-opacity:1"
     id="rect3043-1"
     width="2"
     height="10"
     x="50"
     y="34" />
  <rect
     style="fill:#ffff00;fill-opacity:1"
     id="rect3045-3"
     width="2"
     height="10"
     x="54"
     y="34" />
</svg>
